<svg xmlns="http://www.w3.org/2000/svg" xmlns:xlink="http://www.w3.org/1999/xlink" viewBox="0 0 253.51 286.89"><defs><style>.cls-1{fill:none;}.cls-2{clip-path:url(#clip-path);}.cls-3{}</style><clipPath id="clip-path" transform="translate(-51.51 -17.21)"><polygon class="cls-1" points="32.09 289.96 50.87 296.22 82.96 267.65 226.56 251.61 316.17 234.78 333.39 143.22 326.74 5.09 131.09 0 0 26.61 14.48 285.26 32.09 289.96"/></clipPath></defs><g id="Layer_2" data-name="Layer 2"><g id="Layer_1-2" data-name="Layer 1"><g class="cls-2"><path class="cls-3" d="M51.56,284.29q10.52-13.79,21-27.56,33.61-43.81,67.32-87.52c2.24-2.9,2.36-4.79.16-7.71-5.82-7.7-11.41-15.59-16.83-23.58a7.24,7.24,0,0,0-7-3.58c-7.16.2-14.33.18-21.49,0-3.16-.07-5,.9-4.33,4.22,2.07,10.52-2.8,17.89-10.06,24.8-6.83,6.5-12.86,13.84-19.91,21.53-.25-2.16-.5-3.37-.5-4.58,0-49.81,0-99.63-.12-149.44,0-4.27,1-5.68,5.5-5.63,22.49.25,45-.12,67.47.18,22.24.29,40.19,8.94,49.51,30,9.46,21.38,8,42.48-7.16,61C170,122.75,162.68,127.2,155.73,133c2.78,3.73,6.16,8.58,9.9,13.13,2,2.46,1.76,4-.25,6.32Q111.19,215.24,57.13,278.14c-1.77,2.06-3.61,4.06-5.42,6.09ZM90.8,106.93c1.52.11,2.81.3,4.11.3,12.33,0,24.66.1,37,0,14.83-.13,25.18-11,25.29-26.46.12-17.55-8.73-27.86-24.64-28.18-12.66-.25-25.33.05-38-.1-3.32,0-4.25,1.13-4.22,4.36.14,15.33,0,30.66.08,46C90.42,104.12,90.65,105.42,90.8,106.93Z" transform="translate(-51.51 -17.21)"/><path class="cls-3" d="M294.51,17.21l-36.8,49.64c20.28,7.26,36,19.55,47,38.51-9.3,3.78-18,7.46-26.85,10.7-1.06.38-3.43-1.36-4.49-2.68-8.27-10.37-18.54-17.64-31.58-20.53a6.37,6.37,0,0,0-5.33,1.83c-16.32,21.69-32.36,43.58-48.67,65.28-3.51,4.68-3.33,8.52-.39,13.49,19.83,33.51,60.52,36.29,85.45,5.48,2.59-3.21,4.48-3.81,8.19-2.12,7.53,3.45,15.32,6.35,24,9.86-3.35,4.71-6,9.07-9.27,13-38.17,45.59-111.63,36.59-137.6-16.9-.8-1.64-.68-4.81.4-6.1Q225.36,97,292.5,17.7A10.78,10.78,0,0,1,294.51,17.21Z" transform="translate(-51.51 -17.21)"/><path class="cls-3" d="M137.77,295.39c-2.76,6.87,2,6.65,6.24,6.86l-.34,1.24-8.62.41c0-5.36-.21-10.16.07-14.93.19-3.27,3.72-3.89,9.37-1.34-1.8.19-2.85.31-3.9.41s-2,.18-3.21.29v4.36l6.12,1.11-.06,1Z" transform="translate(-51.51 -17.21)"/><path class="cls-3" d="M103.59,286.72c3-.94,6.63-1.37,7.93,2.18.78,2.12-.82,5.12-1.36,7.72l-1.48-.05q2,3.21,4,6.44l-.94.81-5.83-6.32c-.53,2.31-.94,4.1-1.36,5.89l-1-.09Zm1.22,6.51,2.22,1.42c1-1.27,2.37-2.43,2.91-3.88.17-.44-1.88-1.7-2.91-2.59Z" transform="translate(-51.51 -17.21)"/><path class="cls-3" d="M80.7,288.86c-4.17-1.63-8.34-2-10.57,2.28a9.59,9.59,0,0,0,.07,7.8c2.27,4.2,6.44,3.75,10.84,1.6-2.56,4.13-6.89,4.59-10.7,1.75A9.12,9.12,0,0,1,68.89,289C72.2,285.17,77.42,284.91,80.7,288.86Z" transform="translate(-51.51 -17.21)"/><path class="cls-3" d="M288.57,286.57h8.73c-2.7,1.43-6.32,2.2-6.68,3.74-1.16,4.91,4.9,1.23,5.79,3.5-2.16,1.44-5.31,2.36-5.89,4.13-1.81,5.56,4.34,2.9,6.33,5-7.59,2.24-8.64,1.54-8.66-5.59,0-3.15,0-6.3.07-9.45A7.27,7.27,0,0,1,288.57,286.57Z" transform="translate(-51.51 -17.21)"/><path class="cls-3" d="M172.36,285.15l7.87,18.31c-3.11-1.8-5.47-4.19-7.92-4.28-2.26-.08-4.62,2.29-7.64,4C167.09,297.51,169.45,292,172.36,285.15Zm0,5.2-2.63,6.18H175Z" transform="translate(-51.51 -17.21)"/><path class="cls-3" d="M259.53,303.46l-6.36-16.69,1.59-.73c1.66,3.84,3.31,7.67,5.35,12.42,2-4.69,3.72-8.55,5.39-12.41l1.61.67q-3.18,8.29-6.35,16.59Z" transform="translate(-51.51 -17.21)"/><path class="cls-3" d="M198.84,286.56h10.23c-8.37,4.19-2.18,11.75-6.64,16.75,0-3.26,0-6.51,0-9.77C202.4,290.73,203.38,287.34,198.84,286.56Z" transform="translate(-51.51 -17.21)"/><path class="cls-3" d="M231.6,286.56v16.71l-1,0V286.57Z" transform="translate(-51.51 -17.21)"/><path class="cls-3" d="M51.71,284.23l-.2.22.44-.12-.37,0Z" transform="translate(-51.51 -17.21)"/></g></g></g>
<style>
 path { fill: #000; }
        @media (prefers-color-scheme: dark) {
            path { fill: #FFF; }
        }
</style>
</svg>